HIERARCHY
ROOT pelvis
{
  OFFSET 0 100 0
  CHANNELS 6 Xposition Yposition Zposition Zrotation Xrotation Yrotation
  JOINT pelvis_right_femur
  {
    OFFSET -10.78128 -3.44521 -0.5502486
    CHANNELS 3 Zrotation Xrotation Yrotation
    JOINT right_femur_tibia
    {
      OFFSET -0.8047443 -44.0398 -0.1307829
      CHANNELS 3 Zrotation Xrotation Yrotation
      JOINT right_tibia_foot
      {
        OFFSET 3.006224 -47.83518 -5
        CHANNELS 3 Zrotation Xrotation Yrotation
        End Site
        {
          OFFSET 0 -5 15
        }
      }
    }
  }
  JOINT pelvis_left_femur
  {
    OFFSET 10.78128 -3.44521 -0.5502486
    CHANNELS 3 Zrotation Xrotation Yrotation
    JOINT left_femur_tibia
    {
      OFFSET 0.8047443 -44.0398 -0.1307829
      CHANNELS 3 Zrotation Xrotation Yrotation
      JOINT left_tibia_foot
      {
        OFFSET -4.370144 -48.10324 -4.275266
        CHANNELS 3 Zrotation Xrotation Yrotation
        End Site
        {
          OFFSET 0 -5 15
        }
      }
    }
  }
  JOINT pelvis_spine1
  {
    OFFSET 0 6.468898 -3.129235
    CHANNELS 3 Zrotation Xrotation Yrotation
    JOINT spine1
    {
      OFFSET 0 23.15396 4.99043
      CHANNELS 3 Zrotation Xrotation Yrotation
      JOINT spine2
      {
        OFFSET 0 20.79997 -5.064912
        CHANNELS 3 Zrotation Xrotation Yrotation
        JOINT neck
        {
          OFFSET 0 14.38658 9.616178
          CHANNELS 3 Zrotation Xrotation Yrotation
          End Site
          {
            OFFSET 0 20 0
          }
        }
      }
      JOINT right_manubrium
      {
        OFFSET -5.722621 16.35077 3.967754
        CHANNELS 3 Zrotation Xrotation Yrotation
        JOINT right_clavicle
        {
          OFFSET -13.16364 1.694482 -4.693211
          CHANNELS 3 Zrotation Xrotation Yrotation
          JOINT right_humerus
          {
            OFFSET -28.5034 -0.3100689 -2.792744
            CHANNELS 3 Zrotation Xrotation Yrotation
            JOINT right_radius
            {
              OFFSET -25.15693 0.02248979 -1.271978
              CHANNELS 3 Zrotation Xrotation Yrotation
              End Site
              {
                OFFSET -15 0 0
              }
            }
          }
        }
      }
      JOINT left_manubrium
      {
        OFFSET 5.722621 16.35077 3.967754
        CHANNELS 3 Zrotation Xrotation Yrotation
        JOINT left_clavicle
        {
          OFFSET 13.16364 1.694482 -4.693211
          CHANNELS 3 Zrotation Xrotation Yrotation
          JOINT left_humerus
          {
            OFFSET 29.39168 -1.063119 -2.237045
            CHANNELS 3 Zrotation Xrotation Yrotation
            JOINT left_radius
            {
              OFFSET 24.59957 -0.9528479 0.9047498
              CHANNELS 3 Zrotation Xrotation Yrotation
              End Site
              {
                OFFSET 15 -0 -0
              }
            }
          }
        }
      }
    }
  }
}
MOTION
Frames: 21
Frame Time: 0.0416666666667
30.24187 100.7094 272.1426 2.327354 -6.965365 0.2721417 0.7816834 17.32245 7.856747 -0 34.51446 -0 9.931187 -9.580099 -4.44145 -1.845192 -24.34731 -4.448418 -0 26.2315 -0 -8.537849 -9.188699 15.78974 -1.791425 1.087521 8.609723 -2.800915 10.0009 -2.103741 2.27772 18.94332 6.441803 2.69105 -18.906 8.277254 0.7323186 -22.12181 9.79577 79.70712 17.45193 -2.349354 -0 0 27.18586 -24.06029 12.88105 13.106 2.62281 -13.04688 -2.441009 -90.26642 20.15423 26.48541 0 0 -10.86613 -4.006581 3.20261 21.37571
31.42828 101.2648 279.6909 3.013191 -7.117909 0.6547583 -0.6900887 16.94069 7.206507 -0 41.91507 -0 10.72039 -6.64562 -5.413679 -3.641332 -20.69187 -5.623991 -0 27.71055 -0 -8.057173 -10.47368 15.23396 -2.66654 0.3799716 8.473348 -2.866679 9.973302 -2.278251 2.397186 19.29685 6.372078 2.689135 -18.45625 8.336956 1.0872 -21.17509 9.447979 80.69734 17.21129 -3.412912 -0 0 26.28703 -23.81452 12.52815 12.81073 2.47852 -13.00085 -2.529207 -89.67733 20.68663 25.44186 0 0 -10.72771 -4.104745 3.308145 21.29788
32.6245 102.2435 286.9651 3.46911 -7.803834 1.470445 -0.7224662 13.53539 6.203513 -0 49.62766 -0 10.48058 -5.244267 -6.575001 -5.03955 -15.38906 -6.432827 -0 27.67363 -0 -7.514339 -12.54083 14.78515 -3.024759 0.4270616 7.822175 -2.935182 10.35409 -2.503654 2.445856 20.02154 6.349938 2.665711 -17.72697 8.404398 1.498066 -20.32223 9.319198 81.73024 17.27997 -4.651608 -0 0 24.77946 -23.24885 12.32925 12.28181 2.194809 -13.32746 -2.661128 -88.6155 21.28681 23.61747 0 0 -11.0481 -4.028223 3.500631 20.93518
33.6118 103.6323 293.3931 3.360917 -8.527066 1.997868 -1.00766 9.017112 5.0618 -0 55.27948 -0 9.777474 -5.284124 -8.264825 -5.514205 -9.786308 -6.868777 -0 26.64246 -0 -7.192291 -14.20765 14.43883 -2.898766 0.4555268 6.88566 -2.772687 10.25506 -2.772993 2.231184 20.55537 6.662267 2.509625 -17.33661 8.700393 2.086411 -19.29884 9.524237 82.9622 17.60005 -6.106392 -0 0 22.87743 -22.38505 12.26314 11.62491 1.953702 -14.01539 -3.073916 -87.22535 21.89794 20.88795 0 0 -11.84305 -3.792111 3.753764 20.37285
34.58467 105.4187 299.8815 3.005717 -9.903458 2.677248 -0.6348477 1.735336 4.049116 -0 57.18096 -0 8.555292 -6.649686 -9.103913 -5.393421 -3.68793 -7.199289 -0 25.0357 -0 -7.189749 -15.21971 14.06621 -2.595779 0.9967576 5.525197 -2.256153 10.49135 -3.500281 2.043553 21.40032 7.024052 2.396183 -16.75215 9.077124 2.526404 -18.32545 9.499351 84.24718 17.94339 -7.7794 -0 0 21.10991 -21.44412 12.21832 11.01299 1.759379 -14.75688 -3.637446 -85.81007 22.44471 17.67685 0 0 -12.90029 -3.499476 4.035365 19.67221
35.41166 106.5973 305.9229 2.722213 -10.17775 3.778492 -0.09885777 -4.993338 3.287557 -0 55.09924 -0 7.10867 -7.194924 -9.503302 -5.166576 2.056911 -7.362838 -0 21.95593 -0 -7.29555 -16.22099 13.4747 -2.602174 1.089716 3.93476 -1.591521 10.29505 -4.909083 1.914688 22.08223 7.404323 2.330058 -16.16538 9.495106 2.411631 -17.41075 9.157071 85.31178 18.19549 -9.582417 -0 0 19.57476 -20.60282 12.12613 10.50105 1.887381 -15.58157 -4.598568 -84.25709 23.03029 14.01009 0 0 -14.04586 -3.256866 4.31012 18.90929
36.26577 106.92 311.7422 2.643406 -9.680995 5.790392 0.06787637 -11.30568 2.769828 -0 49.31562 -0 5.440559 -7.259538 -10.0411 -4.804994 7.498965 -7.213169 -0 17.83821 -0 -7.395218 -17.57923 12.56964 -2.770549 0.8570057 2.38008 -0.7701921 9.831135 -6.631323 2.023528 22.44999 7.621086 2.392613 -15.77613 9.873727 1.826983 -16.33948 8.499424 86.09854 18.31506 -11.64107 -0 0 17.94797 -19.81703 11.95068 9.932945 2.376751 -16.39066 -5.52651 -82.55752 23.51262 10.16695 0 0 -15.72944 -2.949889 4.671891 17.90046
36.95879 106.4229 317.4085 2.725649 -8.836177 7.439751 -0.5979268 -16.10074 2.022409 -0 40.23141 -0 3.551443 -7.46371 -10.69044 -4.359842 11.76745 -7.154009 -0 14.72561 -0 -7.467282 -19.06828 11.59083 -3.109097 0.7139923 1.410732 -0.0732 8.970126 -7.934494 2.267482 22.64558 7.659295 2.536666 -15.61581 10.12517 1.19794 -15.37752 7.78069 86.58627 18.37254 -13.63904 -0 0 16.09233 -19.00747 11.73473 9.1931 3.020249 -17.4229 -5.963576 -80.60335 23.76854 6.256338 0 0 -17.93819 -2.401519 5.208314 16.63003
37.69192 105.2704 323.4531 3.008255 -8.180085 8.558865 -1.549279 -20.05361 1.010472 -0 30.21167 -0 1.509703 -7.937818 -11.73198 -4.249744 15.64328 -7.161348 -0 13.22418 -0 -7.578823 -20.53157 10.73248 -3.47949 0.6522557 0.8499729 0.3596235 8.256161 -8.737211 2.520288 22.5963 7.59166 2.688268 -15.77569 10.23794 0.7394779 -14.30228 7.229538 87.00187 18.44805 -15.69586 -0 0 13.69292 -18.0225 11.5442 8.161911 3.612341 -18.47252 -6.055534 -78.61392 23.80378 2.714811 0 0 -20.12229 -1.680799 5.852903 15.2252
38.12719 103.8608 329.3121 3.285716 -7.947298 9.301897 -2.16865 -23.22317 0.2923857 -0 21.19363 -0 -0.4299476 -8.561211 -12.34968 -4.069634 18.89509 -7.191521 -0 13.43585 -0 -7.811787 -21.62231 10.18493 -3.672471 1.075477 0.7911739 0.7068436 7.750602 -8.909662 2.711136 22.47443 7.416853 2.819177 -16.18212 10.15442 0.7769104 -13.10065 6.979882 87.61611 18.52306 -17.85823 -0 0 10.50129 -16.62162 11.39284 6.61171 3.97858 -19.76571 -5.840496 -76.49978 23.62215 -0.7952026 0 0 -22.05042 -0.8380316 6.503746 13.78881
38.42172 102.6778 335.0967 3.196707 -7.47751 9.48795 -1.97456 -24.5705 -0.08237965 -0 15.02185 -0 -2.276625 -9.323039 -12.45069 -3.612126 21.11974 -7.210389 -0 15.24353 -0 -8.263244 -21.8184 9.924485 -3.463095 1.532024 0.8764241 1.015945 7.194684 -8.713916 2.7697 22.34793 7.195869 2.902705 -16.78949 9.892375 1.306181 -12.31193 7.110717 88.30962 18.60581 -19.3813 -0 0 7.616378 -15.03841 11.31668 5.08052 4.156627 -20.89063 -5.503421 -75.01943 23.41771 -3.3335 0 0 -23.41158 -0.04274686 7.124143 12.51957
38.70398 101.7642 342.1885 2.863344 -7.62424 10.1233 -0.7733551 -23.99101 0.8424454 -0 15.38866 -0 -3.940426 -9.22236 -12.78395 -2.492891 22.63065 -7.739005 -0 19.43796 -0 -8.959821 -20.57436 10.18297 -2.841147 1.210327 0.7742933 1.026384 6.979667 -8.293708 2.909984 22.54958 6.817198 3.075492 -17.30639 9.480706 1.417366 -11.47165 7.267197 88.91277 18.66948 -20.50201 -0 0 5.41229 -13.56108 11.28001 3.800032 4.198439 -21.33498 -4.809278 -74.69293 23.39411 -4.433222 0 0 -24.11307 0.5924014 7.673994 11.51212
38.89398 101.2075 349.5951 2.480299 -7.764493 11.06194 1.106664 -22.89087 2.412981 -0 18.99163 -0 -5.229507 -8.223115 -12.66233 -1.183421 24.12312 -7.939893 -0 25.00908 -0 -9.792096 -17.8817 11.11129 -2.080047 0.7155992 0.3902482 1.029537 6.847796 -8.080738 2.815877 22.56826 6.511589 3.127507 -17.91406 8.948343 1.527252 -10.49282 7.254032 89.67585 18.59121 -21.40475 -0 0 3.81847 -12.05749 11.26073 2.697333 4.349032 -21.19477 -4.064023 -75.17411 23.52606 -4.310875 0 0 -24.20098 1.057189 8.169058 10.77987
39.13714 101.5298 357.5008 1.5772 -8.45177 11.35533 2.484229 -19.81963 4.321631 -0 23.25799 -0 -6.517367 -7.358184 -12.21588 -0.1479814 23.80058 -7.961165 -0 33.81393 -0 -10.608 -14.12358 13.12809 -0.8497454 0.3553337 0.1611408 1.350717 7.250089 -7.893604 2.643955 22.90878 6.174636 3.161386 -18.4304 8.296936 1.790151 -9.554898 7.094193 90.11188 18.46966 -21.9778 -0 0 2.876189 -10.64613 11.21459 1.720757 4.291415 -20.47864 -3.146963 -76.59581 23.84272 -2.909643 0 0 -23.53336 1.271585 8.59507 10.38777
39.36672 102.0325 365.1818 0.9689297 -10.01318 10.70844 4.511992 -15.43578 5.669809 -0 26.20817 -0 -7.749455 -8.024373 -12.05498 0.6744985 21.25193 -8.719296 -0 42.13956 -0 -10.76307 -11.60256 15.4145 -0.03791455 0.2245772 0.5153719 1.443796 7.189937 -7.374118 2.662518 22.97978 5.929131 3.301826 -19.36741 7.936056 1.79909 -9.305378 7.370126 89.73979 18.48262 -21.39463 -0 0 3.187441 -9.731218 11.11093 1.197566 4.02627 -19.40294 -2.646993 -78.46585 24.25818 -0.6660722 0 0 -21.88568 1.184887 8.962314 10.38347
39.32593 103.1064 371.6979 0.986348 -11.99023 9.780441 5.774774 -9.802272 6.261506 -0 26.97102 -0 -8.612305 -9.204711 -11.90809 0.3088001 15.00725 -8.457124 -0 48.40643 -0 -9.7953 -11.23786 18.0798 0.1257198 1.734358 1.588647 1.467611 7.459406 -6.378521 2.649445 23.63532 5.770537 3.429347 -19.82285 7.673596 1.899435 -10.68163 8.190977 88.07757 18.79449 -19.12439 -0 0 4.725714 -9.343778 10.96257 0.9889425 3.585733 -18.63469 -2.654241 -80.27438 24.68603 1.403784 0 0 -19.62633 0.8044334 9.279365 10.71435
39.48005 104.5533 377.7614 1.421898 -12.53272 8.815065 5.904573 -4.25951 6.486244 -0 25.2304 -0 -9.022998 -10.34008 -11.55758 -0.6013788 10.4186 -7.755723 -0 54.62783 -0 -8.819051 -10.87695 20.79665 -0.3139866 2.223595 2.480787 1.476334 7.61687 -5.807695 2.474258 24.22921 5.781044 3.442988 -20.15053 7.507834 2.149492 -11.81378 8.234011 86.58091 18.78303 -17.04113 -0 0 6.591947 -9.416441 10.6874 1.116418 3.252271 -17.70818 -2.521258 -82.43988 25.05392 4.166358 0 0 -16.77604 0.2016218 9.523168 11.34776
39.66857 106.0437 383.6513 1.918227 -12.85765 7.703149 5.436096 1.382172 6.237084 -0 22.30371 -0 -9.035928 -11.30859 -10.91054 -1.746699 4.228646 -7.178362 -0 55.37519 -0 -7.726203 -10.88278 22.52472 -0.8346098 2.657775 3.570608 1.301177 7.750457 -4.853865 2.307661 24.69933 5.794831 3.41963 -20.41199 7.372979 2.310584 -12.89662 8.492731 85.24987 18.56734 -14.70958 -0 0 8.9421 -9.791695 10.3388 1.514208 3.101535 -16.83621 -2.40818 -84.82474 25.25213 7.24803 0 0 -13.75549 -0.5262362 9.693283 12.13603
39.90619 107.0022 388.8837 2.251958 -12.53403 6.75764 4.789903 6.220972 5.496928 -0 18.63813 -0 -8.81148 -12.29602 -10.12077 -2.255468 -2.206449 -6.558666 -0 50.26986 -0 -6.523376 -10.98559 23.58201 -1.069065 3.181131 4.409372 0.8613039 7.476276 -3.801422 2.06416 24.81322 5.900317 3.321384 -20.79245 7.302414 2.124983 -14.33269 8.977163 83.69673 18.25993 -11.96664 -0 0 11.7456 -10.38863 9.953027 2.146555 3.11075 -16.15944 -2.37734 -87.06172 25.2228 10.36315 0 0 -10.80659 -1.270384 9.798631 12.92408
40.17529 107.2032 394.3857 2.254055 -12.09299 4.946701 4.587183 10.3346 3.895868 -0 15.05561 -0 -8.513471 -13.54669 -9.480873 -1.875768 -8.246674 -6.213926 -0 41.54596 -0 -5.467371 -10.61758 24.34408 -1.128364 3.532322 5.313542 0.3421104 7.293967 -2.500996 1.726466 24.62725 6.144549 3.16935 -21.3643 7.325333 1.941664 -15.36172 9.461928 82.70546 17.80318 -9.593037 -0 0 14.42999 -11.07966 9.560706 2.865212 3.228699 -15.43284 -2.180019 -89.13722 24.95963 13.5884 0 0 -7.998107 -1.972019 9.883674 13.66889
40.39162 106.5898 399.7443 1.825479 -11.16236 3.429682 4.438024 13.98663 2.541712 -0 12.41785 -0 -8.395212 -14.97026 -8.353375 -0.4842434 -13.03654 -5.679119 -0 31.13543 -0 -4.783893 -9.6059 25.18955 -0.9638534 3.486859 5.778326 -0.1896773 6.814409 -1.597242 1.459339 24.34509 6.48806 3.08837 -22.06057 7.530356 1.367503 -16.84544 9.815542 81.72093 17.33511 -6.829277 -0 0 17.83964 -12.25783 9.280428 4.076156 3.487236 -14.59228 -2.063726 -90.97517 24.55011 16.74486 0 0 -5.297893 -2.564037 9.959299 14.3906
